<svg xmlns="http://www.w3.org/2000/svg" width="1536" height="369" viewBox="0 0 1536 369" preserveAspectRatio="xMidYMid meet">
  <g transform="translate(0,369) scale(0.1,-0.1)" fill="#fffff" stroke="none"> 
<path d="M1405 3674 c-139 -33 -305 -95 -305 -115 0 -12 12 -12 185 11 196 26
384 26 558 0 74 -11 154 -27 177 -35 23 -8 49 -15 56 -15 20 0 207 -75 274
-109 369 -189 656 -479 799 -807 81 -186 103 -254 143 -434 20 -93 23 -132 22
-340 0 -208 -3 -246 -22 -330 -46 -194 -113 -371 -184 -489 -21 -34 -38 -65
-38 -68 0 -3 -31 -46 -69 -96 -229 -305 -536 -508 -916 -608 -257 -67 -553
-83 -755 -42 -158 33 -258 73 -325 128 -36 29 -28 30 80 9 56 -11 167 -17 365
-21 289 -5 306 -4 539 37 130 23 362 111 481 182 220 134 415 352 532 598 118
245 156 392 165 637 5 127 2 173 -17 290 -12 76 -28 158 -36 183 -8 25 -20 68
-28 95 -67 236 -203 473 -396 688 -38 43 -168 150 -235 194 -243 160 -552 241
-876 231 -277 -9 -481 -57 -714 -168 -218 -104 -395 -252 -546 -455 -156 -212
-252 -417 -300 -645 -25 -123 -28 -497 -3 -617 59 -296 176 -549 359 -773 57
-70 234 -245 302 -300 24 -18 41 -35 39 -37 -8 -9 -114 43 -181 88 -38 26
-104 77 -145 114 -41 36 -98 81 -127 100 -83 56 -93 46 -38 -39 100 -156 258
-317 415 -421 139 -92 368 -199 480 -225 19 -5 60 -15 90 -23 136 -38 232 -47
480 -47 255 0 326 7 490 52 83 23 229 72 257 87 10 5 45 22 78 39 118 57 159
83 289 180 l98 74 42 -39 c49 -47 142 -123 149 -123 3 0 32 -17 64 -38 152
-100 333 -169 553 -212 138 -26 549 -29 699 -4 356 58 620 166 822 335 l46 38
53 -45 c190 -162 467 -281 755 -325 44 -7 196 -14 337 -17 230 -3 270 -2 383
18 201 34 425 119 630 238 250 146 529 411 689 656 58 88 140 255 169 343 54
162 71 280 72 498 0 306 -41 511 -158 785 -219 511 -666 914 -1212 1094 -160
52 -448 70 -665 40 -406 -55 -623 -155 -877 -402 -70 -68 -84 -77 -95 -65 -52
63 -282 225 -411 289 -51 25 -100 50 -110 55 -26 14 -171 64 -252 87 -150 43
-232 52 -449 52 -217 0 -323 -12 -453 -51 -34 -11 -69 -19 -76 -19 -8 0 -36
-8 -63 -19 -27 -10 -76 -29 -109 -41 -159 -60 -362 -170 -474 -258 l-64 -50
-111 82 c-144 105 -132 98 -312 189 -103 52 -327 126 -455 151 -114 21 -523
21 -614 0z m5235 -268 c157 -23 151 -31 -23 -32 -104 0 -191 -6 -242 -16 -44
-9 -97 -19 -118 -23 -73 -12 -279 -86 -375 -134 -379 -191 -675 -501 -782
-821 -12 -36 -33 -126 -46 -199 -20 -113 -24 -168 -24 -338 0 -175 3 -220 24
-326 32 -158 64 -257 126 -382 116 -237 285 -426 523 -586 49 -32 85 -59 82
-59 -19 0 -179 91 -245 139 -136 99 -303 284 -379 421 -77 139 -131 278 -172
440 -22 88 -24 114 -24 340 0 235 2 250 29 360 15 63 34 130 41 150 58 154 73
188 135 295 13 22 28 49 34 60 6 11 24 38 41 60 354 477 886 725 1395 651z
m-5012 -741 c423 -26 450 -29 513 -59 118 -57 187 -153 229 -321 47 -188 8
-340 -110 -431 -115 -89 -147 -123 -160 -168 -10 -35 -10 -52 0 -83 14 -40 53
-102 92 -143 40 -41 75 -110 96 -190 36 -128 65 -278 59 -295 -16 -41 -159
-61 -205 -29 -27 19 -52 65 -52 97 0 28 -43 175 -67 232 -75 173 -223 297
-407 339 -93 22 -137 20 -177 -7 -51 -34 -61 -77 -58 -242 2 -77 3 -194 3
-259 1 -118 1 -119 -27 -139 -40 -30 -150 -37 -179 -11 -11 11 -24 29 -28 40
-5 12 -10 370 -11 795 -2 867 -5 824 70 868 45 26 81 26 419 6z m3028 -55 c41
-16 53 -39 53 -100 0 -85 -10 -94 -132 -101 -56 -4 -210 -7 -342 -8 -250 -1
-304 -8 -343 -44 -33 -31 -52 -108 -52 -212 0 -74 4 -99 23 -135 39 -77 51
-80 326 -83 236 -2 241 -2 263 -25 20 -19 23 -33 23 -97 0 -112 6 -109 -238
-116 -172 -5 -211 -10 -263 -28 -74 -27 -130 -78 -145 -135 -17 -61 -4 -215
22 -277 37 -85 27 -83 469 -89 424 -6 420 -5 441 -69 14 -40 7 -103 -15 -136
-11 -16 -29 -26 -58 -30 -24 -3 -262 -5 -530 -3 l-488 3 -27 28 -28 28 0 272
c0 150 -4 500 -9 778 -5 278 -6 518 -2 533 13 54 26 55 548 56 307 0 486 -4
504 -10z m2169 -29 c152 -39 275 -111 377 -219 62 -66 129 -171 156 -241 51
-134 65 -214 66 -376 0 -142 -3 -172 -27 -265 -85 -330 -293 -543 -582 -596
-111 -20 -815 -32 -869 -14 -75 25 -71 -29 -74 849 -2 563 1 793 9 812 24 60
35 63 233 70 99 4 282 5 406 3 187 -2 239 -6 305 -23z m1292 -356 c67 -167 83
-401 44 -622 -82 -459 -338 -867 -656 -1047 l-50 -29 60 63 c117 122 166 178
230 265 170 233 263 442 320 722 22 108 25 148 25 340 0 146 -5 244 -14 298
-8 44 -18 96 -21 115 l-6 35 22 -40 c12 -22 33 -67 46 -100z"/>
<path d="M1461 2421 c-18 -5 -48 -23 -65 -40 l-31 -31 4 -193 c3 -200 8 -223
51 -262 21 -18 35 -20 189 -19 240 2 355 26 430 90 59 51 85 112 85 199 0 112
-45 179 -159 232 -59 27 -64 27 -265 30 -113 1 -220 -2 -239 -6z"/>
<path d="M6310 2363 c-117 -21 -169 -56 -190 -131 -13 -49 -13 -57 7 -178 14
-89 15 -109 3 -146 -10 -33 -13 -117 -11 -363 3 -345 8 -381 56 -403 43 -20
188 -34 350 -34 150 -1 165 1 240 27 72 25 140 61 171 91 7 6 25 21 40 35 150
127 218 362 168 583 -87 386 -273 529 -682 525 -70 -1 -138 -4 -152 -6z"/>
<path d="M14570 2660 c-120 -22 -237 -86 -312 -169 -65 -72 -96 -132 -120
-231 -57 -237 36 -420 267 -529 44 -21 174 -68 289 -106 279 -91 329 -126 357
-252 11 -49 11 -62 -5 -105 -23 -66 -63 -103 -155 -146 -70 -32 -84 -35 -172
-35 -89 -1 -102 2 -160 31 -35 18 -73 40 -85 50 -32 27 -89 105 -113 156 -37
75 -65 89 -172 84 -82 -3 -93 -5 -111 -28 -17 -21 -19 -33 -13 -84 29 -260
184 -414 479 -477 281 -59 570 24 716 204 28 34 61 91 75 127 22 58 25 81 25
197 0 110 -3 141 -21 184 -26 67 -86 142 -152 193 -49 36 -223 126 -246 126
-6 0 -30 9 -53 19 -24 11 -114 50 -201 88 -87 37 -173 81 -192 96 -67 55 -69
157 -4 231 52 59 104 76 229 76 88 0 100 -2 141 -28 56 -36 66 -49 109 -135
45 -92 73 -112 153 -112 153 2 182 46 139 211 -32 119 -86 197 -187 269 -105
75 -177 97 -330 101 -71 1 -150 -1 -175 -6z"/>
<path d="M8940 2641 c-51 -11 -78 -28 -95 -61 -13 -25 -15 -136 -15 -840 0
-738 2 -815 17 -847 20 -43 63 -63 131 -63 65 0 107 16 128 48 17 26 19 131
12 467 -2 69 17 120 55 147 31 23 37 23 327 24 278 0 300 2 375 23 106 31 166
63 226 123 126 124 176 362 119 563 -59 209 -186 332 -399 387 -20 5 -209 13
-421 18 -212 5 -394 11 -405 13 -11 3 -36 2 -55 -2z m760 -314 c133 -34 190
-74 219 -152 25 -67 26 -116 4 -184 -18 -58 -73 -128 -112 -143 -78 -29 -143
-38 -290 -38 -86 0 -188 -5 -228 -11 -120 -19 -151 0 -172 106 -17 83 -6 384
14 412 11 14 33 19 117 24 151 10 385 2 448 -14z"/>
<path d="M11193 2621 l-442 -6 -23 -23 -23 -23 -1 -404 c-1 -241 3 -405 8
-405 5 0 8 -165 7 -408 -2 -382 -1 -411 16 -440 37 -61 42 -62 598 -62 472 0
505 2 544 19 35 17 44 26 54 63 16 62 6 146 -23 175 -37 37 -107 43 -477 43
-415 0 -397 -5 -433 112 -43 139 -24 251 51 306 61 45 113 54 333 61 l208 6
27 28 c26 25 28 33 28 106 0 65 -4 85 -21 108 -38 50 -51 53 -310 53 l-240 0
-31 33 c-26 26 -33 43 -39 94 -3 34 -3 97 1 139 6 70 11 82 39 110 19 19 47
35 67 38 19 3 186 8 373 12 l338 6 29 27 c56 50 47 175 -14 216 -33 21 -101
23 -644 16z"/>
<path d="M12526 2609 c-55 -13 -91 -43 -110 -90 -15 -37 -17 -117 -16 -790 0
-411 3 -762 6 -778 4 -17 17 -42 30 -56 21 -22 31 -25 96 -25 83 0 135 20 156
60 9 18 11 50 7 115 -3 50 -6 162 -6 250 -1 176 6 207 52 231 38 19 76 18 160
-6 223 -61 363 -226 414 -486 29 -151 64 -181 199 -168 107 11 130 42 106 146
-70 311 -71 313 -155 418 -53 66 -85 125 -85 155 0 40 54 104 130 155 127 85
176 217 151 408 -8 53 -22 117 -32 141 -11 24 -19 48 -19 53 0 16 -62 101 -99
137 -20 19 -65 47 -100 64 -71 32 -82 33 -526 57 -110 5 -227 12 -260 15 -33
2 -77 0 -99 -6z m661 -309 c74 -26 118 -57 141 -100 66 -119 21 -268 -96 -321
-54 -24 -280 -58 -389 -59 -84 0 -135 20 -153 59 -7 16 -13 89 -15 191 -4 249
-4 249 273 250 157 0 190 -3 239 -20z"/>
</g></svg>
